<svg xmlns="http://www.w3.org/2000/svg" viewBox="0 0 64 64"><title>Artboard-14</title><g id="Man_Graduation" data-name="Man Graduation"><path d="M45,11.39V23.27A1.9947,1.9947,0,0,0,44,23H41V20s-10,0-12-4c0,0-1,4-6,4v3H20a1.9947,1.9947,0,0,0-1,.27V11.39A47.2761,47.2761,0,0,1,45,11.39Z" style="fill:#343544"/><path d="M38,31.71V39a6,6,0,0,1-12,0V31.7a8.9906,8.9906,0,0,0,12,.01Z" style="fill:#eac2b9"/><path d="M58,53.47V62a1,1,0,0,1-1,1H7a1,1,0,0,1-1-1V53.47a9.9916,9.9916,0,0,1,5.9-9.12L26,38a6,6,0,0,0,12,0l14.1,6.35A9.9916,9.9916,0,0,1,58,53.47Z" style="fill:#494a59"/><path d="M50.28,43.53C47.09,49.27,39.87,53,32,53s-15.09-3.73-18.28-9.47L26,38a6,6,0,0,0,12,0Z" style="fill:#ea972a"/><path d="M47.53,42.29C44.88,46.83,38.93,50,32,50s-12.88-3.17-15.53-7.71L26,38a6,6,0,0,0,12,0Z" style="fill:#fcd354"/><path d="M44,22H40l-.2234,6H44a2,2,0,0,0,2-2V24A2,2,0,0,0,44,22Z" style="fill:#eac2b9"/><path d="M24,22H20a2,2,0,0,0-2,2v2a2,2,0,0,0,2,2h4.2234Z" style="fill:#eac2b9"/><path d="M29,15s-1,4-6,4v7a9,9,0,0,0,18,0V19S31,19,29,15Z" style="fill:#ffddd4"/><path d="M17,1V11.6418a.9958.9958,0,0,0,1.2952.9469,47.4353,47.4353,0,0,1,27.41,0A.9958.9958,0,0,0,47,11.6418V1Z" style="fill:#494a59"/><path d="M52.5137,43.4346,39,37.3533v-4.224A10.011,10.011,0,0,0,41.5388,29H44a3.0033,3.0033,0,0,0,3-3V24a2.9817,2.9817,0,0,0-1-2.22V13.7364c.2275.0719.4571.1368.6836.2123A1,1,0,0,0,48,13V2h4V16a1,1,0,0,0,2,0V1a1,1,0,0,0-1-1H11a1,1,0,0,0,0,2h5V13a1,1,0,0,0,1.3164.9487c.2265-.0755.4561-.14.6836-.2123V21.78A2.9817,2.9817,0,0,0,17,24v2a3.0033,3.0033,0,0,0,3,3h2.4612A10.011,10.011,0,0,0,25,33.1293v4.224L11.4863,43.4346A11.0166,11.0166,0,0,0,5,53.4658V63a1,1,0,0,0,2,0V53.4658a9.0131,9.0131,0,0,1,5.3066-8.207l1.0215-.46C16.89,50.4136,24.097,54,32,54s15.11-3.5864,18.6719-9.2009l1.0215.46A9.0131,9.0131,0,0,1,57,53.4658V63a1,1,0,0,0,2,0V53.4658A11.0166,11.0166,0,0,0,52.5137,43.4346ZM32,45a7.01,7.01,0,0,0,6.8406-5.5251l7.21,3.2445C43.2581,46.5648,37.8869,49,32,49s-11.2581-2.4352-14.05-6.2806l7.21-3.2445A7.01,7.01,0,0,0,32,45ZM45,26a1.0009,1.0009,0,0,1-1,1H41.9493c.0328-.329.0507-.6625.0507-1V23h2a1.0009,1.0009,0,0,1,1,1ZM46,2v9.6338a48.7888,48.7888,0,0,0-28,0V2ZM20,13.155a46.812,46.812,0,0,1,24,0V21H42V19a1,1,0,0,0-1-1c-2.61-.002-9.6943-.6245-11.1055-3.4473a1,1,0,0,0-1.8642.2046C28.0215,14.79,27.1709,18,23,18a1,1,0,0,0-1,1v2H20ZM20,27a1.0009,1.0009,0,0,1-1-1V24a1.0009,1.0009,0,0,1,1-1h2v3c0,.3375.0179.671.0507,1Zm4-1V19.9478a6.93,6.93,0,0,0,5.2207-3.0611C31.9756,19.39,37.6182,19.8823,40,19.9775V26a8,8,0,0,1-16,0Zm8,10a9.9251,9.9251,0,0,0,5-1.3531V38a5,5,0,0,1-10,0V34.6469A9.9251,9.9251,0,0,0,32,36Zm0,16c-7.1125,0-13.5826-3.12-16.8352-8.0274l.9293-.4182C19.1929,48.1021,25.3176,51,32,51s12.8071-2.8979,15.9059-7.4456l.9293.4182C45.5826,48.88,39.1125,52,32,52Z" style="fill:#231e23"/><path d="M48,54a1,1,0,0,0-1,1v8a1,1,0,0,0,2,0V55A1,1,0,0,0,48,54Z" style="fill:#231e23"/><path d="M16,54a1,1,0,0,0-1,1v8a1,1,0,0,0,2,0V55A1,1,0,0,0,16,54Z" style="fill:#231e23"/></g></svg>