<?xml version="1.0" encoding="utf-8"?>
<!-- Generator: Adobe Illustrator 23.0.2, SVG Export Plug-In . SVG Version: 6.00 Build 0)  -->
<svg version="1.1" id="Layer_1" xmlns="http://www.w3.org/2000/svg" xmlns:xlink="http://www.w3.org/1999/xlink" x="0px" y="0px"
	 viewBox="0 0 2048 2048" style="enable-background:new 0 0 2048 2048;" xml:space="preserve">
<style type="text/css">
	.st0{fill:#60B7FF;}
	.st1{fill:#784132;}
	.st2{fill:#F2B9A3;}
	.st3{fill:#F4BAA6;}
	.st4{fill:#C4E2FF;}
</style>
<g>
	<g>
		<path class="st0" d="M1454.31,1260.94c102.49,0,185.58,83.09,185.58,185.58V1792H408.12v-345.49
			c0-102.49,83.09-185.58,185.58-185.58H1454.31z"/>
		<g>
			<path class="st1" d="M1126.41,1191.88c18.3,0,36.49-2.91,53.88-8.62c25.53-8.4,50.75-19.49,77.59-20.95
				c23.15-1.27,46.06,4.72,69.22,5.54c23.95,0.84,41.35-0.85,63.16-10.78V625.06c0-203.83-165.24-369.06-369.06-369.06
				c-203.83,0-369.06,165.24-369.06,369.06l0,532.01l0-0.01c21.81,9.93,39.21,11.62,63.16,10.78c23.16-0.82,46.07-6.81,69.22-5.54
				c26.84,1.46,52.06,12.55,77.59,20.95c17.39,5.71,35.58,8.62,53.88,8.62H1126.41z"/>
			<path class="st2" d="M1198.76,756.92h104.44c12.78-4.95,27.07-6.95,41.94-5.14c41.02,4.99,73.08,39.32,75.5,80.58
				c2.94,50.1-36.81,91.66-86.28,91.66c-13.14,0-25.6-2.94-36.76-8.19h-98.84V756.92z"/>
			<path class="st2" d="M899.62,756.92H744.8c-9.66-3.74-20.18-5.8-31.16-5.8c-49.72,0-89.62,41.98-86.23,92.42
				c2.84,42.27,36.74,76.71,78.96,80.17c15.81,1.29,30.83-1.68,44.02-7.9h149.23V756.92z"/>
			<path class="st3" d="M1303.22,698.87v161.08c0,77.1-31.25,146.9-81.77,197.42s-120.32,81.77-197.45,81.77
				c-154.2,0-279.22-125-279.22-279.2V698.87c145.82-78.02,159.78-217.51,160.57-259.21
				C915.71,732.64,1303.22,698.87,1303.22,698.87"/>
			<g>
				<circle class="st1" cx="909.61" cy="812.7" r="30.05"/>
				<circle class="st1" cx="1138.38" cy="812.7" r="30.05"/>
				<path class="st1" d="M1023.77,1039.41c-31.08,0-60.26-12.07-82.17-33.98c-1.88-1.88-2.92-4.39-2.92-7.05
					c0-2.66,1.04-5.17,2.92-7.05c1.88-1.88,4.39-2.92,7.05-2.92s5.17,1.04,7.05,2.92c18.16,18.15,42.33,28.15,68.07,28.15
					c25.74,0,49.92-10,68.07-28.15c1.88-1.88,4.39-2.92,7.05-2.92s5.17,1.04,7.05,2.92c1.88,1.88,2.92,4.39,2.92,7.05
					c0,2.66-1.04,5.17-2.92,7.05C1084.02,1027.34,1054.84,1039.41,1023.77,1039.41z"/>
			</g>
		</g>
		<polygon class="st2" points="1142.03,1260.5 1141.9,1260.68 1023.96,1426.77 906.03,1260.68 905.9,1260.5 911.37,1188.82 
			917.07,1114.02 922.29,1045.45 1125.66,1045.45 1131.05,1116.29 1136.56,1188.82 		"/>
		<g>
			<polygon class="st4" points="1141.9,1260.68 1023.96,1426.77 1107.61,1508.8 1277.32,1260.94 			"/>
			<polygon class="st4" points="905.9,1260.5 1023.96,1426.77 940.32,1508.8 770.6,1260.94 			"/>
		</g>
	</g>
</g>
</svg>
